<svg xmlns="http://www.w3.org/2000/svg" viewBox="0 0 100 120">
  <rect width="100" height="120" fill="#ffffff" />
  <!-- Collectivité européenne d'Alsace official logo on plates -->
  <!-- Stylized blue A curving with a red heart integrated -->
  <path d="M 45 22 C 30 22, 18 45, 18 75 C 18 85, 24 92, 28 92 C 32 92, 35 85, 36 78 C 38 65, 37 50, 48 42 C 51 39, 55 38, 58 41 C 65 47, 65 72, 73 84 C 76 89, 81 90, 84 86 C 88 78, 88 50, 78 32 C 70 21, 55 22, 45 22 Z" fill="#005C9E" />
  <path d="M 50 48 C 45 40, 36 45, 36 52 C 36 60, 47 68, 50 71 C 53 68, 64 60, 64 52 C 64 45, 55 40, 50 48 Z" fill="#E3001B" />
  <!-- Text official font styling -->
  <text x="50" y="112" font-family="'Helvetica Neue', Helvetica, Arial, sans-serif" font-weight="900" font-size="11" fill="#005C9E" text-anchor="middle" letter-spacing="0.8">ALSACE</text>
</svg>