<svg xmlns="http://www.w3.org/2000/svg" viewBox="0 0 100 120">
  <rect width="100" height="120" fill="#ffffff" />
  <!-- Auvergne-Rhône-Alpes official 2016 plate logo -->
  <!-- Blue geographical outline of the region -->
  <path d="M 28 32 C 32 30, 40 32, 45 28 C 50 24, 60 28, 68 25 C 75 22, 82 28, 80 35 C 78 42, 85 48, 82 55 C 78 62, 72 58, 68 65 C 64 72, 58 75, 52 70 C 45 65, 38 72, 32 68 C 26 64, 22 55, 25 45 C 28 35, 24 34, 28 32 Z" fill="#0F519F" />
  <!-- Gold mountains brush stroke on top -->
  <path d="M 30 25 C 42 12, 58 15, 75 22" fill="none" stroke="#F6C300" stroke-width="4.5" stroke-linecap="round" />
  <!-- Cyan/teal water wave sweep on bottom -->
  <path d="M 20 75 Q 45 60, 80 75" fill="none" stroke="#00A1B0" stroke-width="4.5" stroke-linecap="round" />
  <!-- Text -->
  <text x="50" y="98" font-family="'Helvetica Neue', Helvetica, Arial, sans-serif" font-weight="bold" font-size="6.5" fill="#4B5563" text-anchor="middle">La Région</text>
  <text x="50" y="110" font-family="'Helvetica Neue', Helvetica, Arial, sans-serif" font-weight="950" font-size="7.5" fill="#0F519F" text-anchor="middle" letter-spacing="0.2">Auvergne-Rhône-Alpes</text>
</svg>