<svg xmlns="http://www.w3.org/2000/svg" viewBox="0 0 100 120">
  <rect width="100" height="120" fill="#008290" />
  <!-- Région Bretagne official plate logo -->
  <!-- Modern stylized white Ermine -->
  <g fill="#ffffff">
    <path d="M 50 18 C 45 18, 41 26, 41 33 C 41 40, 45 44, 47 47 C 42 50, 34 54, 32 59 C 30 64, 35 70, 40 70 C 44 70, 46 66, 48 62 C 48 76, 44 85, 41 93 L 59 93 C 56 85, 52 76, 51 62 C 53 66, 55 70, 59 70 C 64 70, 69 64, 67 59 C 65 54, 57 50, 52 47 C 54 44, 58 40, 58 33 C 58 26, 54 18, 50 18 Z" />
    <circle cx="43" cy="46" r="3" fill="#ffffff" />
    <circle cx="57" cy="46" r="3" fill="#ffffff" />
    <circle cx="50" cy="53" r="3" fill="#ffffff" />
  </g>
  <!-- Text official signatures -->
  <text x="18" y="112" font-family="'Helvetica Neue', Helvetica, Arial, sans-serif" font-weight="400" font-size="5" fill="#ffffff" opacity="0.8">Région</text>
  <text x="36" y="112" font-family="'Helvetica Neue', Helvetica, Arial, sans-serif" font-weight="900" font-size="10.5" fill="#ffffff" letter-spacing="0.5">BRETAGNE</text>
</svg>