<svg xmlns="http://www.w3.org/2000/svg" viewBox="0 0 100 120">
  <rect width="100" height="120" fill="#ffffff" />
  <!-- Centre-Val de Loire official logo -->
  <!-- Multi-colored heart-shaped leaf curve -->
  <path d="M 28 32 C 15 45, 15 68, 45 88 C 55 78, 80 52, 80 32 C 80 18, 58 15, 50 28 C 42 15, 30 18, 28 32 Z" fill="none" stroke="#2563EB" stroke-width="10" stroke-linecap="round" />
  <path d="M 45 42 C 50 36, 58 38, 62 45 C 58 52, 50 52, 45 42 Z" fill="#16A34A" />
  <path d="M 47 38 C 55 30, 62 32, 65 40 C 60 48, 52 48, 47 38 Z" fill="#EAB308" />
  <!-- Text signature -->
  <text x="50" y="102" font-family="'Helvetica Neue', Helvetica, Arial, sans-serif" font-weight="900" font-size="7.5" fill="#2563EB" text-anchor="middle">Centre-</text>
  <text x="50" y="114" font-family="'Helvetica Neue', Helvetica, Arial, sans-serif" font-weight="950" font-size="9.5" fill="#16A34A" text-anchor="middle">Val de Loire</text>
</svg>