<svg xmlns="http://www.w3.org/2000/svg" viewBox="0 0 100 120">
  <rect width="100" height="120" fill="#ffffff" />
  <!-- Grand Est official plate logo layout -->
  <!-- 3 colored wave blocks representing the merger -->
  <g transform="translate(0, 5)">
    <path d="M 15 50 C 30 40, 50 50, 65 40 C 72 35, 80 42, 85 45" fill="none" stroke="#00A2E2" stroke-width="5.5" stroke-linecap="round" />
    <path d="M 15 62 C 30 52, 50 62, 65 52 C 72 47, 80 54, 85 57" fill="none" stroke="#1DA23B" stroke-width="5.5" stroke-linecap="round" />
    <path d="M 15 74 C 30 64, 50 74, 65 64 C 72 59, 80 66, 85 69" fill="none" stroke="#E3001B" stroke-width="5.5" stroke-linecap="round" />
    <!-- Yellow stars above -->
    <path d="M 40 28 L 42 33 L 47 33 L 43 36 L 45 41 L 40 38 L 35 41 L 37 36 L 33 33 L 38 33 Z" fill="#EAB308" />
    <path d="M 60 28 L 62 33 L 67 33 L 63 36 L 65 41 L 60 38 L 55 41 L 57 36 L 53 33 L 58 33 Z" fill="#EAB308" />
  </g>
  <!-- Text signatures -->
  <text x="50" y="100" font-family="'Helvetica Neue', Helvetica, Arial, sans-serif" font-weight="bold" font-size="5.5" fill="#4B5563" text-anchor="middle" letter-spacing="1">LA RÉGION</text>
  <text x="50" y="112" font-family="'Helvetica Neue', Helvetica, Arial, sans-serif" font-weight="950" font-size="11" fill="#003B6F" text-anchor="middle" letter-spacing="0.5">GRAND EST</text>
</svg>