<svg xmlns="http://www.w3.org/2000/svg" viewBox="0 0 100 120">
  <rect width="100" height="120" fill="#015A9F" />
  <!-- île-de-France official logo: stylized 8-point flower/starburst in red -->
  <g fill="#E30613" transform="translate(0, -2)">
    <circle cx="50" cy="48" r="14" />
    <path d="M 50 18 L 54 36 L 50 48 L 46 36 Z" />
    <path d="M 50 78 L 54 60 L 50 48 L 46 60 Z" />
    <path d="M 20 48 L 38 52 L 50 48 L 38 44 Z" />
    <path d="M 80 48 L 62 52 L 50 48 L 62 44 Z" />
    
    <path d="M 29 27 L 43 39 L 50 48 L 38 34 Z" />
    <path d="M 71 69 L 57 57 L 50 48 L 62 62 Z" />
    <path d="M 29 69 L 43 57 L 50 48 L 38 62 Z" />
    <path d="M 71 27 L 57 39 L 50 48 L 62 34 Z" />
  </g>
  <circle cx="50" cy="46" r="4" fill="#ffffff" />
  
  <!-- Text white bold regional name representing the logo bar -->
  <text x="50" y="103" font-family="'Helvetica Neue', Helvetica, Arial, sans-serif" font-weight="bold" font-size="5.5" fill="#ffffff" opacity="0.8" text-anchor="middle">RÉGION</text>
  <text x="50" y="113" font-family="'Helvetica Neue', Helvetica, Arial, sans-serif" font-weight="950" font-size="10" fill="#ffffff" text-anchor="middle" letter-spacing="-0.2">île-de-France</text>
</svg>